<svg width="1280" height="720" xmlns="http://www.w3.org/2000/svg" xmlns:xlink="http://www.w3.org/1999/xlink" overflow="hidden"><defs><clipPath id="clip0"><rect x="0" y="0" width="1280" height="720"/></clipPath></defs><g clip-path="url(#clip0)"><rect x="0" y="0" width="1280" height="720" fill="#FFFFFF"/><path d="M1128 180.833C1128 177.612 1130.61 175 1133.83 175L1227.17 175C1230.39 175 1233 177.612 1233 180.833L1233 204.167C1233 207.388 1230.39 210 1227.17 210L1133.83 210C1130.61 210 1128 207.388 1128 204.167Z" fill="#9DC3E6" fill-rule="evenodd"/><path d="M771 74.0003C771 70.6864 773.686 68 777 68L1070 68C1073.31 68 1076 70.6864 1076 74.0003L1076 97.9997C1076 101.314 1073.31 104 1070 104L777 104C773.686 104 771 101.314 771 97.9997Z" fill="#9DC3E6" fill-rule="evenodd"/><path d="M293 71.0003C293 67.6864 295.686 65 299 65L592 65C595.314 65 598 67.6864 598 71.0003L598 94.9997C598 98.3136 595.314 101 592 101L299 101C295.686 101 293 98.3136 293 94.9997Z" fill="#9DC3E6" fill-rule="evenodd"/><path d="M13 70.0001C13 66.6863 15.6863 64 19.0001 64L179 64C182.314 64 185 66.6863 185 70.0001L185 93.9999C185 97.3137 182.314 100 179 100L19.0001 100C15.6863 100 13 97.3137 13 93.9999Z" fill="#9DC3E6" fill-rule="evenodd"/><rect x="57" y="157.041" width="18.9587" height="483.959" fill="#0070C0"/><path d="M75.9587 157.041 122 111 122 594.959 75.9587 641Z" fill="#005A9A" fill-rule="evenodd"/><path d="M57 157.041 103.041 111 122 111 75.9587 157.041Z" fill="#328CCC" fill-rule="evenodd"/><path d="M57 157.041 103.041 111 122 111 122 594.959 75.9587 641 57 641ZM57 157.041 75.9587 157.041 122 111M75.9587 157.041 75.9587 641" stroke="#000000" stroke-width="4" stroke-miterlimit="8" fill="none" fill-rule="evenodd"/><path d="M787.5 186.825C787.5 175.6 796.6 166.5 807.825 166.5L1040.18 166.5C1051.4 166.5 1060.5 175.6 1060.5 186.825L1060.5 561.175C1060.5 572.4 1051.4 581.5 1040.18 581.5L807.825 581.5C796.6 581.5 787.5 572.4 787.5 561.175Z" stroke="#000000" stroke-width="3" stroke-miterlimit="8" fill="none" fill-rule="evenodd"/><path d="M1128.5 244.32C1128.5 231.165 1139.16 220.5 1152.32 220.5L1210.68 220.5C1223.84 220.5 1234.5 231.165 1234.5 244.32L1234.5 503.68C1234.5 516.835 1223.84 527.5 1210.68 527.5L1152.32 527.5C1139.16 527.5 1128.5 516.835 1128.5 503.68Z" stroke="#000000" stroke-width="3" stroke-miterlimit="8" fill="none" fill-rule="evenodd"/><rect x="157" y="218.439" width="53.5607" height="344.561" fill="#0070C0"/><path d="M210.561 218.439 263 166 263 510.561 210.561 563Z" fill="#005A9A" fill-rule="evenodd"/><path d="M157 218.439 209.439 166 263 166 210.561 218.439Z" fill="#328CCC" fill-rule="evenodd"/><path d="M157 218.439 209.439 166 263 166 263 510.561 210.561 563 157 563ZM157 218.439 210.561 218.439 263 166M210.561 218.439 210.561 563" stroke="#000000" stroke-width="4" stroke-miterlimit="8" fill="none" fill-rule="evenodd"/><rect x="293" y="249.607" width="78.3929" height="234.393" fill="#0070C0"/><path d="M371.393 249.607 401 220 401 454.393 371.393 484Z" fill="#005A9A" fill-rule="evenodd"/><path d="M293 249.607 322.607 220 401 220 371.393 249.607Z" fill="#328CCC" fill-rule="evenodd"/><path d="M293 249.607 322.607 220 401 220 401 454.393 371.393 484 293 484ZM293 249.607 371.393 249.607 401 220M371.393 249.607 371.393 484" stroke="#000000" stroke-width="4" stroke-miterlimit="8" fill="none" fill-rule="evenodd"/><rect x="445" y="320.621" width="67.3785" height="134.379" fill="#0070C0"/><path d="M512.379 320.621 550 283 550 417.379 512.379 455Z" fill="#005A9A" fill-rule="evenodd"/><path d="M445 320.621 482.621 283 550 283 512.379 320.621Z" fill="#328CCC" fill-rule="evenodd"/><path d="M445 320.621 482.621 283 550 283 550 417.379 512.379 455 445 455ZM445 320.621 512.379 320.621 550 283M512.379 320.621 512.379 455" stroke="#000000" stroke-width="4" stroke-miterlimit="8" fill="none" fill-rule="evenodd"/><text font-family="Cascadia Code,Cascadia Code_MSFontService,sans-serif" font-weight="700" font-size="21" transform="translate(26.2403 672)">1*256*256</text><path d="M99 380 140.693 380 140.693 386 99 386ZM137.693 374 155.693 383 137.693 392Z"/><path d="M236 377 277.693 377 277.693 383 236 383ZM274.693 371 292.693 380 274.693 389Z"/><path d="M390 377 431.693 377 431.693 383 390 383ZM428.693 371 446.693 380 428.693 389Z"/><text font-family="Cascadia Code,Cascadia Code_MSFontService,sans-serif" font-weight="700" font-size="21" transform="translate(147.539 606)">16*128*128<tspan font-size="21" x="149.488" y="-77">32*64*64</tspan><tspan font-size="21" x="295.287" y="-122">64*32*32</tspan></text><path d="M532 377 573.693 377 573.693 383 532 383ZM570.693 371 588.693 380 570.693 389Z"/><rect x="589" y="345.975" width="108.025" height="67.025" fill="#0070C0"/><path d="M697.025 345.975 719 324 719 391.025 697.025 413Z" fill="#005A9A" fill-rule="evenodd"/><path d="M589 345.975 610.975 324 719 324 697.025 345.975Z" fill="#328CCC" fill-rule="evenodd"/><path d="M589 345.975 610.975 324 719 324 719 391.025 697.025 413 589 413ZM589 345.975 697.025 345.975 719 324M697.025 345.975 697.025 413" stroke="#000000" stroke-width="4" stroke-miterlimit="8" fill="none" fill-rule="evenodd"/><text font-family="Cascadia Code,Cascadia Code_MSFontService,sans-serif" font-weight="700" font-size="21" transform="translate(593.326 439)">128*16*16</text><path d="M713 371 771.881 371 771.881 377 713 377ZM768.881 365 786.881 374 768.881 383Z"/><text font-family="Cascadia Code,Cascadia Code_MSFontService,sans-serif" font-weight="700" font-size="21" transform="translate(30.3283 89)">Input Image</text><path d="M134.5 151.5C134.5 143.216 145.955 136.5 160.084 136.5L417.914 136.5C432.044 136.5 443.498 129.785 443.498 121.5 443.498 129.785 454.953 136.5 469.083 136.5L732.916 136.5C747.046 136.5 758.5 143.216 758.5 151.501" stroke="#000000" stroke-width="3" stroke-miterlimit="8" fill="none" fill-rule="evenodd"/><text font-family="Cascadia Code,Cascadia Code_MSFontService,sans-serif" font-weight="700" font-size="21" transform="translate(321.228 90)">Convolutional Layers<tspan font-size="21" x="470.983" y="6">Fully </tspan>Connected Layer</text><path d="M787.5 151.5C787.5 143.216 798.955 136.5 813.085 136.5L897.102 136.5C911.232 136.5 922.687 129.784 922.687 121.5 922.687 129.784 934.142 136.5 948.272 136.5L1034.92 136.5C1049.05 136.5 1060.5 143.216 1060.5 151.5" stroke="#000000" stroke-width="3" stroke-miterlimit="8" fill="none" fill-rule="evenodd"/><path d="M809.5 227.5C809.5 206.513 826.513 189.5 847.5 189.5 868.487 189.5 885.5 206.513 885.5 227.5 885.5 248.487 868.487 265.5 847.5 265.5 826.513 265.5 809.5 248.487 809.5 227.5Z" stroke="#000000" stroke-width="3" stroke-miterlimit="8" fill="#FFFFFF" fill-rule="evenodd"/><path d="M962.5 228.5C962.5 207.513 979.513 190.5 1000.5 190.5 1021.49 190.5 1038.5 207.513 1038.5 228.5 1038.5 249.487 1021.49 266.5 1000.5 266.5 979.513 266.5 962.5 249.487 962.5 228.5Z" stroke="#000000" stroke-width="3" stroke-miterlimit="8" fill="#FFFFFF" fill-rule="evenodd"/><path d="M810.5 318.5C810.5 297.513 827.289 280.5 848 280.5 868.711 280.5 885.5 297.513 885.5 318.5 885.5 339.487 868.711 356.5 848 356.5 827.289 356.5 810.5 339.487 810.5 318.5Z" stroke="#000000" stroke-width="3" stroke-miterlimit="8" fill="#FFFFFF" fill-rule="evenodd"/><path d="M962.5 318.5C962.5 297.513 979.513 280.5 1000.5 280.5 1021.49 280.5 1038.5 297.513 1038.5 318.5 1038.5 339.487 1021.49 356.5 1000.5 356.5 979.513 356.5 962.5 339.487 962.5 318.5Z" stroke="#000000" stroke-width="3" stroke-miterlimit="8" fill="#FFFFFF" fill-rule="evenodd"/><path d="M810.5 525.5C810.5 504.513 827.289 487.5 848 487.5 868.711 487.5 885.5 504.513 885.5 525.5 885.5 546.487 868.711 563.5 848 563.5 827.289 563.5 810.5 546.487 810.5 525.5Z" stroke="#000000" stroke-width="3" stroke-miterlimit="8" fill="#FFFFFF" fill-rule="evenodd"/><path d="M962.5 526C962.5 505.289 979.513 488.5 1000.5 488.5 1021.49 488.5 1038.5 505.289 1038.5 526 1038.5 546.711 1021.49 563.5 1000.5 563.5 979.513 563.5 962.5 546.711 962.5 526Z" stroke="#000000" stroke-width="3" stroke-miterlimit="8" fill="#FFFFFF" fill-rule="evenodd"/><text font-family="PMingLiU,PMingLiU_MSFontService,sans-serif" font-weight="700" font-size="24" writing-mode="tb-rl" transform="translate(840.07 381)" x="7.21875" y="5.01562">．．．</text><text font-family="PMingLiU,PMingLiU_MSFontService,sans-serif" font-weight="700" font-size="24" writing-mode="tb-rl" transform="translate(993.637 381)" x="7.21875" y="5.01562">．．．</text><path d="M885.504 227 962.205 227.53 962.198 228.53 885.497 228ZM954.489 222.878 963.194 228.037 954.419 233.075C954.179 233.212 953.874 233.129 953.736 232.89 953.599 232.65 953.681 232.345 953.921 232.207L961.953 227.596 961.947 228.46 953.979 223.738C953.742 223.597 953.663 223.291 953.804 223.053 953.945 222.815 954.252 222.737 954.489 222.878Z"/><path d="M885.841 227.134 963.592 299.429 962.911 300.161 885.16 227.866ZM961.048 290.785 963.977 300.47 954.104 298.252C953.835 298.192 953.666 297.924 953.726 297.655 953.787 297.385 954.054 297.216 954.323 297.277L963.36 299.307 962.772 299.939 960.091 291.074C960.011 290.81 960.16 290.531 960.425 290.451 960.689 290.371 960.968 290.52 961.048 290.785Z"/><path d="M885.975 227.345 974.428 497.734 973.477 498.045 885.025 227.656ZM976.391 488.944 974.262 498.836 966.699 492.114C966.493 491.931 966.474 491.615 966.658 491.408 966.841 491.202 967.157 491.183 967.363 491.367L974.286 497.519 973.465 497.788 975.413 488.734C975.471 488.464 975.737 488.292 976.007 488.35 976.277 488.408 976.449 488.674 976.391 488.944Z"/><path d="M0.353597-0.35351 79.0239 78.3362 78.3167 79.0432-0.353597 0.35351ZM76.7977 69.6053 79.3717 79.3912 69.5864 76.8149C69.3194 76.7446 69.1599 76.4711 69.2302 76.2041 69.3005 75.937 69.574 75.7775 69.841 75.8478L78.7974 78.206 78.1866 78.8167 75.8307 69.8597C75.7604 69.5926 75.92 69.3192 76.187 69.249 76.4541 69.1787 76.7275 69.3383 76.7977 69.6053Z" transform="matrix(1 0 0 -1 885.5 317.89)"/><path d="M885.5 318 961.815 318 961.815 319 885.5 319ZM954.067 313.402 962.808 318.5 954.067 323.599C953.829 323.738 953.523 323.657 953.383 323.419 953.244 323.18 953.325 322.874 953.563 322.735L961.563 318.068 961.563 318.932 953.563 314.265C953.325 314.126 953.244 313.82 953.383 313.582 953.523 313.343 953.829 313.262 954.067 313.402Z"/><path d="M885.964 318.313 963.875 510.892 962.948 511.267 885.037 318.688ZM965.231 501.983 963.783 511.997 955.779 505.807C955.56 505.638 955.52 505.324 955.689 505.106 955.858 504.887 956.172 504.847 956.39 505.016L963.717 510.682 962.916 511.006 964.242 501.84C964.281 501.566 964.535 501.377 964.808 501.416 965.081 501.456 965.271 501.709 965.231 501.983Z"/><path d="M885.504 525 961.599 525.61 961.591 526.61 885.496 526ZM953.888 520.95 962.587 526.118 953.806 531.146C953.567 531.284 953.261 531.201 953.124 530.961 952.987 530.721 953.07 530.416 953.309 530.279L961.346 525.676 961.339 526.54 953.377 521.809C953.14 521.668 953.062 521.361 953.203 521.124 953.344 520.887 953.65 520.809 953.888 520.95Z"/><path d="M0.458458-0.19954 77.5079 176.827 76.591 177.226-0.458458 0.19954ZM78.6316 167.886 77.4448 177.935 69.2817 171.955C69.0589 171.792 69.0106 171.479 69.1738 171.256 69.337 171.034 69.6499 170.985 69.8726 171.149L77.3442 176.621 76.5522 176.966 77.6385 167.768C77.6709 167.494 77.9194 167.298 78.1937 167.331 78.4679 167.363 78.664 167.612 78.6316 167.886Z" transform="matrix(1 0 0 -1 885.5 510.433)"/><path d="M0.466754-0.179279 94.3341 244.205 93.4006 244.564-0.466754 0.179279ZM95.8461 235.316 94.2205 245.304 86.327 238.973C86.1116 238.8 86.077 238.485 86.2498 238.27 86.4226 238.054 86.7373 238.02 86.9527 238.192L94.1775 243.987 93.3712 244.297 94.8591 235.156C94.9034 234.883 95.1603 234.698 95.4329 234.742 95.7054 234.787 95.8904 235.044 95.8461 235.316Z" transform="matrix(1 0 0 -1 874.5 498.801)"/><path d="M1144.5 433C1144.5 412.289 1161.29 395.5 1182 395.5 1202.71 395.5 1219.5 412.289 1219.5 433 1219.5 453.711 1202.71 470.5 1182 470.5 1161.29 470.5 1144.5 453.711 1144.5 433Z" stroke="#000000" stroke-width="3" stroke-miterlimit="8" fill="#FF0000" fill-rule="evenodd"/><path d="M1143.5 303.5C1143.5 282.513 1160.51 265.5 1181.5 265.5 1202.49 265.5 1219.5 282.513 1219.5 303.5 1219.5 324.487 1202.49 341.5 1181.5 341.5 1160.51 341.5 1143.5 324.487 1143.5 303.5Z" stroke="#000000" stroke-width="3" stroke-miterlimit="8" fill="#70AD47" fill-rule="evenodd"/><text font-family="Cascadia Code,Cascadia Code_MSFontService,sans-serif" font-weight="700" font-size="16" transform="translate(1138.43 364)">HCC827<tspan font-size="16" x="65.3334" y="0">(1)</tspan><tspan font-size="19" x="2.66663" y="131">A549</tspan><tspan font-size="19" x="57.6666" y="131">(0)</tspan><tspan font-size="21" x="3.0343" y="-164">Outpu</tspan><tspan font-size="21" x="65.5343" y="-164">t</tspan></text><path d="M1038.74 228.06 1145.83 285.81 1145.36 286.69 1038.26 228.94ZM1141.2 278.085 1146.47 286.721 1136.36 287.06C1136.08 287.069 1135.85 286.853 1135.84 286.577 1135.83 286.301 1136.05 286.07 1136.32 286.061L1145.58 285.75 1145.17 286.51 1140.34 278.606C1140.2 278.37 1140.27 278.062 1140.51 277.919 1140.74 277.775 1141.05 277.849 1141.2 278.085Z"/><path d="M1038.92 228.226 1155.29 405.491 1154.46 406.039 1038.08 228.774ZM1154.89 396.496 1155.42 406.6 1146.36 402.092C1146.12 401.969 1146.02 401.669 1146.14 401.421 1146.26 401.174 1146.56 401.073 1146.81 401.197L1155.1 405.323 1154.38 405.797 1153.89 396.548C1153.88 396.273 1154.09 396.037 1154.36 396.023 1154.64 396.008 1154.87 396.22 1154.89 396.496Z"/><path d="M0.070636-0.494985 104.156 14.3583 104.015 15.3483-0.070636 0.494985ZM97.1346 8.7112 105.067 14.9934 95.6941 18.806C95.4383 18.9101 95.1466 18.7871 95.0425 18.5313 94.9385 18.2755 95.0615 17.9838 95.3173 17.8797L103.896 14.3901 103.774 15.2452 96.5138 9.49514C96.2973 9.32369 96.2608 9.00922 96.4322 8.79275 96.6037 8.57627 96.9182 8.53976 97.1346 8.7112Z" transform="matrix(1 0 0 -1 1038.5 318.493)"/><path d="M1038.85 318.141 1143.99 419.96 1143.29 420.678 1038.15 318.859ZM1141.62 411.266 1144.35 421.009 1134.53 418.592C1134.26 418.526 1134.1 418.255 1134.16 417.987 1134.23 417.718 1134.5 417.555 1134.77 417.621L1143.76 419.834 1143.16 420.454 1140.66 411.536C1140.58 411.27 1140.74 410.994 1141.01 410.92 1141.27 410.845 1141.55 411 1141.62 411.266Z"/><path d="M0.443538-0.230812 107.953 206.363 107.065 206.825-0.443538 0.230812ZM108.457 197.371 107.969 207.478 99.4114 202.078C99.1779 201.931 99.108 201.622 99.2554 201.388 99.4027 201.155 99.7115 201.085 99.945 201.232L107.778 206.175 107.011 206.573 107.458 197.323C107.472 197.047 107.706 196.834 107.982 196.847 108.258 196.861 108.47 197.095 108.457 197.371Z" transform="matrix(1 0 0 -1 1038.5 525.976)"/><path d="M0.28392-0.411569 107.438 73.5083 106.87 74.3315-0.28392 0.411569ZM103.67 65.3228 107.97 74.4828 97.8801 73.7165C97.6047 73.6955 97.3985 73.4554 97.4194 73.18 97.4403 72.9047 97.6805 72.6984 97.9558 72.7193L107.191 73.4207 106.7 74.1318 102.765 65.7477C102.648 65.4977 102.755 65.2 103.005 65.0826 103.255 64.9653 103.553 65.0728 103.67 65.3228Z" transform="matrix(1 0 0 -1 1038.5 525.982)"/></g></svg>